# xmcd
#
# Track frame offsets: 
#        150
#        12101
#        24364
#        37927
#        52109
#        64357
#        77516
#        92736
#        104121
#        116000
#        128818
#        140626
#        150952
#        169091
#        184722
#        204539
#        220239
#        233783
#        250522
#        266618
#        279322
#        289816
#        302743
#
# Disc length: 4276 seconds
#
# Revision: 3
# Processed by: cddbd v1.5.2PL0 Copyright (c) Steve Scherf et al.
# Submitted via: ExactAudioCopy v1.1
#
DISCID=4110b217
DTITLE=Little Milton - We're Gonna Make It - Little Milton Sings Big B
DTITLE=lues
DYEAR=1986
DGENRE=R&B
TTITLE0=We're Gonna Make It (stereo)
TTITLE1=You're Welcome To The Club (stereo)
TTITLE2=I'm Gonna Move To The Outskirts Of Town (stereo)
TTITLE3=Blues In The Night (stereo)
TTITLE4=Country Style (stereo)
TTITLE5=Who's Cheating Who (stereo)
TTITLE6=Blind Man (stereo)
TTITLE7=Can't Hold Back The Tears (stereo)
TTITLE8=Believe In Me (stereo)
TTITLE9=Stand By Me (stereo)
TTITLE10=Life Is Like That (stereo)
TTITLE11=Ain't No Big Deal On You (stereo)
TTITLE12=Feel So Bad (stereo)
TTITLE13=Reconsider Baby (stereo)
TTITLE14=Stormy Monday (stereo)
TTITLE15=Woke Up This Morning (stereo)
TTITLE16=Hard Luck Blues (stereo)
TTITLE17=Please, Please, Please (stereo)
TTITLE18=Sweet Sixteen (stereo)
TTITLE19=Fever (stereo)
TTITLE20=Sneakin' Around (1966) (stereo)
TTITLE21=Have Mercy, Baby (stereo)
TTITLE22=Part Time Love (stereo)
EXTD=MCA Records CHD-5906\nWas originally released as two seperate LPs
EXTD=:\n  We're Gonna Make It (tracks 1-12]\n    Recording: Chicago, 1
EXTD=963-1965\n    "Little" Milton Campbell: vocals, guitar\n    David
EXTD=Hines: trumpet\n    Leonard Caston: piano\n    Roosevelt William
EXTD=s: bass\n    Ira Gates: drums\n    James Carter: tenor sax\n    R
EXTD=obert Crowder: baritone sax\n    Joe Campbell: trumpet\n  Sings B
EXTD=ig Blues (tracks 13-23]\n    Recording: Chicago, 1966\n    "Littl
EXTD=e" Milton Campbell: vocals, guitar\n    Sonny Thompson: piano\n  
EXTD=Roosevelt Williams: bass\n    Ira Gates: drums\n    Phil Upchur
EXTD=ch: guitar\n    Donald Adams: tenor sax\n    John Norment: barito
EXTD=ne sax\n\nEntry: Mike Lempriere  mikel@speakeasy.org  09-Jan-1997
EXTD=\n
EXTT0=Start: "We're Gonna Make It"\n
EXTT1=
EXTT2=
EXTT3=
EXTT4=
EXTT5=
EXTT6=
EXTT7=
EXTT8=
EXTT9=
EXTT10=
EXTT11=
EXTT12=Start: "Sings Big Blues"\n
EXTT13=
EXTT14=
EXTT15=
EXTT16=
EXTT17=
EXTT18=
EXTT19=
EXTT20=
EXTT21=
EXTT22=
PLAYORDER=
